<svg xmlns="http://www.w3.org/2000/svg" xmlns:xlink="http://www.w3.org/1999/xlink" version="1.1" x="0px" y="0px" viewBox="0 0 16 20" style="enable-background:new 0 0 16 16;" xml:space="preserve"><g><path d="M12,5c0-2.209-1.791-4-4-4S4,2.791,4,5c0,3,4,8,4,8S12,8,12,5z M6.5,5c0-0.828,0.672-1.5,1.5-1.5S9.5,4.172,9.5,5   c0,0.828-0.672,1.5-1.5,1.5S6.5,5.828,6.5,5z"/><path d="M11.037,10.346c-0.186,0.311-0.369,0.607-0.552,0.89C12.046,11.542,13,12.09,13,12.5c0,0.598-1.994,1.5-5,1.5   s-5-0.902-5-1.5c0-0.41,0.955-0.958,2.515-1.265c-0.183-0.283-0.367-0.579-0.552-0.89C3.261,10.72,2,11.437,2,12.5   C2,14.142,5.019,15,8,15s6-0.858,6-2.5C14,11.437,12.739,10.72,11.037,10.346z"/></g><text x="0" y="31" fill="#000000" font-size="5px" font-weight="bold" font-family="'Helvetica Neue', Helvetica, Arial-Unicode, Arial, Sans-serif">Created by icon 54</text><text x="0" y="36" fill="#000000" font-size="5px" font-weight="bold" font-family="'Helvetica Neue', Helvetica, Arial-Unicode, Arial, Sans-serif">from the Noun Project</text></svg>